<svg xmlns="http://www.w3.org/2000/svg" viewBox="0 0 3000 3000"><defs><style>.cls-1{fill:#fff;}</style></defs><title>vitalities-logo-white</title><g id="Слой_3" data-name="Слой 3"><path class="cls-1" d="M1876.78,2265l-578.88.17a80,80,0,0,1-79.58-71.53l-18.12-170.25c-4.82-45.35-10.15-95.39-15.81-148.66q-2.52-23.68-5.13-48.16c-6.51-61.17-13.39-125.76-20.41-191.73-6.92-64.93-14-131.17-21-196.81q-2.55-24-5.09-47.84c-5-47-10-93.37-14.75-138.49-7.42-69.58-14.5-136.06-21-196.79-7.6-71.24-14.36-134.54-19.81-185.59-8.3-77.61-13.6-126.92-14.27-132.75,0-.33-.07-.52-.08-.57h.65l46.89-.07a40,40,0,0,1,39.79,35.32l1.87,15.83,21.62,183.6,22.93,194.64,17,144,4.74,40.23,22.93,194.64,65.89,606.33a38.62,38.62,0,0,0,38.39,34.44H1921v35.77A44.24,44.24,0,0,1,1876.78,2265Z"/><path class="cls-1" d="M1469,1421h450a0,0,0,0,1,0,0v30a50,50,0,0,1-50,50H1469a0,0,0,0,1,0,0v-80A0,0,0,0,1,1469,1421Z"/><path class="cls-1" d="M1969.76,752.13l-8.26,25.08a51.81,51.81,0,0,1-56.34,35.14,89.64,89.64,0,0,0-10.19-.87c-105.77-2.39-181.15,139.07-228.85,266.61q-2.43,6.5-4.77,12.93c-25.21,69.53-42.06,132.91-51,163.42l-40.93,144.1-90.79,319.66L1399,1998.58l-14.71-176.7-6.1-73.2s22.54-80.63,55.76-201.27h0c11.45-41.54,24.16-87.83,37.66-137.21,14.75-53.94,29.81-107.78,46-161.25q1.75-5.79,3.53-11.57h0c19.69-64.21,41.13-127.86,65.74-190.49,18.87-48,54.09-139.09,105.08-209.41,7.2-9.93,14.7-19.44,22.53-28.36a280.35,280.35,0,0,1,27.63-27.63c1.15-1,2.32-2,3.49-3q7.45-6.18,15.23-11.51a171.25,171.25,0,0,1,15.72-9.6c62.36-33.55,132.5-23.41,178.82-9.79Z"/></g></svg>